{"title":"Formula 1 2014-The F1 Show Spain 09.05.14.720p.H264.AC3.TBK","uid":10123617,"size":1259107726,"categoryP":"video","categoryS":"hd___tv_shows","magnet":"?xt=urn:btih:5e6daa12f0f516562989303db8f0d741f26ea8e5&amp;dn=Formula+1+2014-The+F1+Show+Spain+09.05.14.720p.H264.AC3.TBK&amp;tr=udp%3A%2F%2Ftracker.openbittorrent.com%3A80&amp;tr=udp%3A%2F%2Fopen.demonii.com%3A1337&amp;tr=udp%3A%2F%2Ftracker.coppersurfer.tk%3A6969&amp;tr=udp%3A%2F%2Fexodus.desync.com%3A6969","seeders":2,"leechers":0,"uploader":"tbkf1","files":3,"time":1399681174,"description":"The F1 Show 09.05.14 (Spain)\n\nCoverage of the SKY SPORTS F1 SHOW For the Spain Grand Prix \n\nMAIN FILE DETAILS:\n\nAir Date: 09.05.14\nResolution: 1280x720\nAudio: AC3 5.1 Channel Dolby Digital \nVideo: H.264 Profile 4.0 High\nContainer: MKV\nRunning Time: 47:08\nBroadcast Time: 17:00-18:00\nSource: Encoded From VU+ Solo2 PVR\nBroadcast: Sky Sports F1 HD (UK)\nFilesize: 1.17 GB\n\n\nPlease visit my blog below for full details of everything you need for the F1 2014 Season including links to all torrents and fileshare downloads.\n\n\nAll Commercials have been removed\n\n\nThese video files will play very fluidly with the standard media players such as VLC, WMP, KM Player, WMC, MP-HC.\n\nFOR ALL YOUR LATEST F1 NEWS, TRACK GUIDES &amp; FULL TORRENT &amp; FILESHARE LINKS INFORMATION IN MORE DETAIL, PLEASE KEEP YOUR EYE ON MY BLOG\n\n\n\n\nEXTENDED FILE DETAILS:\n\n\nFormat                                   : AVC\nFormat/Info                              : Advanced Video Codec\nFormat profile                           : &lt;a class=&quot;__cf_email__&quot; href=&quot;/cdn-cgi/l/email-protection&quot; data-cfemail=&quot;246c4d434c6468100a14&quot;&gt;[email&amp;#160;protected]&lt;/a&gt;&lt;script cf-hash='f9e31' type=&quot;text/javascript&quot;&gt;\n/* &lt;![CDATA[ */!function(){try{var t=&quot;currentScript&quot;in document?document.currentScript:function(){for(var t=document.getElementsByTagName(&quot;script&quot;),e=t.length;e--;)if(t[e].getAttribute(&quot;cf-hash&quot;))return t[e]}();if(t&amp;&amp;t.previousSibling){var e,r,n,i,c=t.previousSibling,a=c.getAttribute(&quot;data-cfemail&quot;);if(a){for(e=&quot;&quot;,r=parseInt(a.substr(0,2),16),n=2;a.length-n;n+=2)i=parseInt(a.substr(n,2),16)^r,e+=String.fromCharCode(i);e=document.createTextNode(e),c.parentNode.replaceChild(e,c)}}}catch(u){}}();/* ]]&gt; */&lt;/script&gt;\nFormat settings, CABAC                   : Yes\nFormat settings, ReFrames                : 5 frames\nCodec ID                                 : V_MPEG4/ISO/AVC\nDuration                                 : 47mn 8s\nBit rate                                 : 3 104 Kbps\nWidth                                    : 1 280 pixels\nHeight                                   : 720 pixels\nDisplay aspect ratio                     : 16:9\nOriginal display aspect ratio            : 16:9\nFrame rate mode                          : Constant\nFrame rate                               : 25.000 fps\nColor space                              : YUV\nChroma subsampling                       : 4:2:0\nBit depth                                : 8 bits\nScan type                                : Progressive\nBits/(Pixel*Frame)                       : 0.135\nStream size                              : 1.02 GiB (87%)\nWriting library                          : x264 core 130 r2273 b3065e6\nLanguage                                 : English\nDefault                                  : Yes\nForced                                   : No\nColor primaries                          : BT.709\nTransfer characteristics                 : BT.709\nMatrix coefficients                      : BT.709\n\nAudio\nID                                       : 2\nFormat                                   : AC-3\nFormat/Info                              : Audio Coding 3\nMode extension                           : CM (complete main)\nFormat settings, Endianness              : Big\nCodec ID                                 : A_AC3\nDuration                                 : 47mn 8s\nBit rate mode                            : Constant\nBit rate                                 : 384 Kbps\nChannel(s)                               : 6 channels\nChannel positions                        : Front: L C R, Side: L R, LFE\nSampling rate                            : 48.0 KHz\nBit depth                                : 16 bits\nCompression mode                         : Lossy\nStream size                              : 129 MiB (11%)\nLanguage                                 : English\nDefault                                  : Yes\nForced                                   : No\n\n","torrent":{"xt":"urn:btih:5e6daa12f0f516562989303db8f0d741f26ea8e5","amp;dn":"Formula+1+2014-The+F1+Show+Spain+09.05.14.720p.H264.AC3.TBK","amp;tr":["udp%3A%2F%2Ftracker.openbittorrent.com%3A80","udp%3A%2F%2Fopen.demonii.com%3A1337","udp%3A%2F%2Ftracker.coppersurfer.tk%3A6969","udp%3A%2F%2Fexodus.desync.com%3A6969"],"infoHash":"5e6daa12f0f516562989303db8f0d741f26ea8e5","infoHashBuffer":{"type":"Buffer","data":[94,109,170,18,240,245,22,86,41,137,48,61,184,240,215,65,242,110,168,229]},"announce":[],"urlList":[]}}